<svg xmlns="http://www.w3.org/2000/svg" xmlns:xlink="http://www.w3.org/1999/xlink" viewBox="0 0 242.7816 101.6777"><defs><linearGradient id="a" x1="9.4609" y1="85.5844" x2="78.933" y2="16.1124" gradientUnits="userSpaceOnUse"><stop offset="0" stop-color="#f2662e"/><stop offset="1" stop-color="#ef4177"/></linearGradient></defs><title>logo</title><path d="M87.9121,25.095c-.0188-.0206-.0374-.0408-.0571-.0606-.0354-.0319-.074-.0588-.1121-.0875a1.7465,1.7465,0,0,0-.2568-.2012L45.1531.2614a1.81,1.81,0,0,0-.3435-.14c-.0337-.0136-.0659-.03-.1006-.041C44.6841.0738,44.66.0689,44.6348.0633A1.7383,1.7383,0,0,0,43.26.2614L.9287,24.7458a1.7709,1.7709,0,0,0-.6067.5973c-.02.0295-.0439.0551-.0625.0858-.0225.0405-.0361.0841-.0557.1261a1.791,1.791,0,0,0-.2039.81V75.3335a1.77,1.77,0,0,0,.03.212,1.6893,1.6893,0,0,0,.8987,1.4063L43.26,101.4361a2.3513,2.3513,0,0,0,2.06,0L87.2092,77.0522a1.8516,1.8516,0,0,0,1.2058-1.7187V26.3648A1.7292,1.7292,0,0,0,87.9121,25.095ZM3.75,72.0817V29.6156L40.46,50.8487Q22.1053,61.4652,3.75,72.0817ZM48.0278,50.8056l36.6372-21.19V72.0827Q78.0033,68.23,71.3416,64.3767Zm-1.9463-3.2073V5.1311L82.7942,26.3647Zm-3.75,0Q23.976,36.9815,5.62,26.3647,23.9763,15.748,42.3315,5.1313Zm0,6.502V96.5663l-36.71-21.233Zm3.9172.0961L69.4529,67.617l13.2549,7.7157L46.2485,96.5558Z" fill="url(#a)"/><path d="M129.7262,43.0406,122.7,63.1367h-7.3235L108.415,43.0406h6.8629l3.7439,14.2185h.0988l.6236-2.5622,3.12-11.6563Z" fill="#454546"/><path d="M141.9149,44.4519V48.59h8.4064l-.0654,5.6158h-8.341v8.9312h-6.8616V38.5089h16.91l.0988,5.943Z" fill="#454546"/><path d="M171.8031,58.9h-7.6186L163.1,63.1367h-7.2568L164.02,38.5089h8.21l8.3076,24.6278h-7.6507ZM167.37,46.5215l-1.7731,6.895h4.8268l-1.74-6.8629-.5915-2.6264h-.0988Z" fill="#454546"/><path d="M185.8959,38.5089h7.0272V63.1367h-7.0272Z" fill="#454546"/><path d="M215.8149,53.22l5.3528,9.9165h-8.0138l-3.61-8.5706h-2.4968v8.5706H200.185V38.5089h9.39c6.6012,0,9.95,2.4621,9.95,7.9792C219.5254,49.7714,218.1782,52.2669,215.8149,53.22Zm-6.1739-9.2275h-2.5943v5.6479h2.5289c2.0362,0,2.7906-.4927,2.7906-2.8894C212.3661,44.5841,211.6784,43.9926,209.6409,43.9926Z" fill="#454546"/><path d="M233.2256,63.596a17.3885,17.3885,0,0,1-7.85-1.8052l.8545-5.6813a15.4017,15.4017,0,0,0,6.9284,1.7731c2.1991,0,3.0536-.6569,3.0536-1.8719,0-3.02-10.8031-1.74-10.8031-10.0487,0-4.3341,2.7919-7.88,9.3918-7.88A20.6994,20.6994,0,0,1,241.96,39.33l-.7878,5.5491a22.0744,22.0744,0,0,0-5.9764-.952c-2.661,0-3.187.7223-3.187,1.6744,0,3.0536,10.7723,1.6744,10.7723,9.982C242.7816,60.51,239.1686,63.596,233.2256,63.596Z" fill="#454546"/></svg>